<svg width="1133" height="804" xmlns:ev="http://www.w3.org/2001/xml-events" xmlns="http://www.w3.org/2000/svg" viewBox="0 0 1133 804" xmlns:xlink="http://www.w3.org/1999/xlink"><defs/><g id="page1" transform="translate(5.5,5.5)"><rect x="0" fill="#ffffff" width="1123" y="0" height="794"/><g id="shape1" transform="translate(472.44,37.80)"><path d="M.0,.0L221.5,.0L221.5,54.4L.0,54.4L.0,.0z" fill="#ffffff" fill-rule="nonzero" stroke="#0f2114"/><text xml:space="preserve" style="fill:#191919;font-family:Arial, Microsoft Yahei, Microsoft Yahei;font-size:12.00pt"><tspan x="48.0" y="22.2">user: extracting </tspan><tspan x="30.5" y="44.2">anonymized images</tspan></text></g><g id="shape2" transform="translate(512.87,108.78)"><path d="M.0,.0L221.5,.0L221.5,54.4L.0,54.4L.0,.0z" fill="#ffffff" fill-rule="nonzero" stroke="#0f2114"/><text xml:space="preserve" style="fill:#191919;font-family:Arial, Microsoft Yahei, Microsoft Yahei;font-size:12.00pt"><tspan x="46.6" y="33.5">user: access PHI</tspan></text></g><g id="shape3" transform="translate(56.69,104.49)"><path d="M.0,.0L145.6,.0L145.6,63.0L.0,63.0L.0,.0z" fill="#ffffff" fill-rule="nonzero" stroke="#0f2114"/><text xml:space="preserve" style="fill:#191919;font-family:Arial, Microsoft Yahei, Microsoft Yahei;font-size:12.00pt"><tspan x="23.3" y="26.5">Clinics: send </tspan><tspan x="12.5" y="48.5">DICOM images</tspan></text></g><g id="shape4" transform="translate(269.06,91.01)"><path d="M.0,45.0C.0,20.1,20.1,.0,45.0,.0C69.9,.0,90.0,20.1,90.0,45.0C90.0,69.9,69.9,90.0,45.0,90.0C20.1,90.0,.0,69.9,.0,45.0z" fill="#ffffff" fill-rule="nonzero" stroke="#061309"/><text xml:space="preserve" style="fill:#191919;font-family:Arial, Microsoft Yahei, Microsoft Yahei;font-size:12.00pt"><tspan x="17.2" y="40.0">Server: </tspan><tspan x="12.7" y="62.0">Orthanc</tspan></text></g><g id="shape5" transform="translate(202.28,136.01)"><path d="M.0,.0L61.2,.0" fill="none" stroke-width="1" stroke="#000000"/><path d="M61.2,-5.6L66.8,.0L61.2,5.6L61.2,-5.6" fill="#000000" stroke-linecap="round" stroke-width="1" stroke="#000000"/></g><g id="shape6" transform="translate(314.06,91.01)"><path d="M.0,.0L.0,-19.0C.0,-22.9,3.1,-26.0,7.0,-26.0L152.8,-26.0" fill="none" stroke-width="1" stroke="#000000"/><path d="M152.8,-31.6L158.4,-26.0L152.8,-20.4L152.8,-31.6" fill="#000000" stroke-linecap="round" stroke-width="1" stroke="#000000"/></g><g id="shape7" transform="translate(359.06,136.01)"><path d="M.0,.0L148.2,.0" fill="none" stroke-width="1" stroke="#000000"/><path d="M148.2,-5.6L153.8,.0L148.2,5.6L148.2,-5.6" fill="#000000" stroke-linecap="round" stroke-width="1" stroke="#000000"/></g><g id="shape8" transform="translate(450.51,179.77)"><path d="M.0,.0L221.5,.0L221.5,54.4L.0,54.4L.0,.0z" fill="#ffffff" fill-rule="nonzero" stroke="#0f2114"/><text xml:space="preserve" style="fill:#191919;font-family:Arial, Microsoft Yahei, Microsoft Yahei;font-size:12.00pt"><tspan x="25.5" y="33.5">user: linking new PHI</tspan></text></g><g id="shape9" transform="translate(450.51,207.00)"><path d="M.0,.0L-129.5,.0C-133.3,.0,-136.5,-3.1,-136.5,-7.0L-136.5,-20.4" fill="none" stroke-width="1" stroke="#000000"/><path d="M-142.1,-20.4L-136.5,-26.0L-130.8,-20.4L-142.1,-20.4" fill="#000000" stroke-linecap="round" stroke-width="1" stroke="#000000"/></g></g></svg>