<svg width="1133" height="1597" xmlns:ev="http://www.w3.org/2001/xml-events" xmlns="http://www.w3.org/2000/svg" viewBox="0 0 1133 1597" xmlns:xlink="http://www.w3.org/1999/xlink"><defs/><g id="page1" transform="translate(5.5,5.5)"><rect x="0" fill="#ffffff" width="1123" y="0" height="1587"/><g id="shape1" transform="translate(474.99,37.80)"><path d="M.0,.0L100.0,.0L100.0,50.0L.0,50.0L.0,.0z" fill="#ffffff" fill-rule="nonzero"/><path d="M.0,50.0L100.0,50.0M.0,.0L100.0,.0" fill="none" stroke="#061309"/><text xml:space="preserve" style="fill:#191919;font-family:Arial, Microsoft Yahei, Microsoft Yahei, Microsoft Yahei;font-size:12.00pt"><tspan x="4.6" y="31.0">File System</tspan></text></g><g id="shape2" transform="translate(292.71,37.80)"><path d="M.0,.0L100.0,.0L100.0,50.0L.0,50.0L.0,.0z" fill="#ffffff" fill-rule="nonzero"/><path d="M.0,50.0L100.0,50.0M.0,.0L100.0,.0" fill="none" stroke="#061309"/><text xml:space="preserve" style="fill:#191919;font-family:Arial, Microsoft Yahei, Microsoft Yahei, Microsoft Yahei;font-size:12.00pt"><tspan x="12.6" y="31.0">Database</tspan></text></g><g id="shape3" transform="translate(763.85,581.23)"><path d="M.0,.0L160.6,.0L160.6,60.2L.0,60.2L.0,.0z" fill="#ffffff" fill-rule="nonzero" stroke="#0f2114"/><text xml:space="preserve" style="fill:#191919;font-family:Arial, Microsoft Yahei, Microsoft Yahei, Microsoft Yahei;font-size:12.00pt"><tspan x="18.4" y="25.1">user: download </tspan><tspan x="51.6" y="47.1">images</tspan></text></g><g id="shape4" transform="translate(935.43,793.24)"><path d="M.0,.0L160.6,.0L160.6,39.0L.0,39.0L.0,.0z" fill="#ffffff" fill-rule="nonzero" stroke="#0f2114"/><text xml:space="preserve" style="fill:#191919;font-family:Arial, Microsoft Yahei, Microsoft Yahei, Microsoft Yahei;font-size:12.00pt"><tspan x="16.2" y="25.5">user: access PHI</tspan></text></g><g id="shape5" transform="translate(37.80,592.43)"><path d="M.0,.0L91.7,.0L91.7,37.8L.0,37.8L.0,.0z" fill="#ffffff" fill-rule="nonzero" stroke="#0f2114"/><text xml:space="preserve" style="fill:#191919;font-family:Arial, Microsoft Yahei, Microsoft Yahei, Microsoft Yahei;font-size:12.00pt"><tspan x="20.1" y="24.9">Clinics</tspan></text></g><g id="shape6" transform="translate(129.45,611.33)"><path d="M.0,.0L86.3,.0" fill="none" stroke-width="1" stroke="#000000"/><path d="M86.3,-5.6L91.9,.0L86.3,5.6L86.3,-5.6" fill="#000000" stroke-linecap="round" stroke-width="1" stroke="#000000"/></g><g id="shape7" transform="translate(844.16,213.38)"><path d="M.0,.0L.0,362.2" fill="none" stroke-width="1" stroke="#000000"/><path d="M5.6,362.2L.0,367.9L-5.6,362.2L5.6,362.2" fill="#000000" stroke-linecap="round" stroke-width="1" stroke="#000000"/></g><g id="shape8" transform="translate(221.33,566.33)"><path d="M120.0,83.0L120.0,7.0C120.0,3.1,116.9,.0,113.0,.0L7.0,.0C3.1,.0,.0,3.1,.0,7.0L.0,83.0C.0,86.9,3.1,90.0,7.0,90.0L113.0,90.0C116.9,90.0,120.0,86.9,120.0,83.0z" fill="#ffffff" fill-rule="nonzero"/><path d="M120.0,83.0L120.0,7.0C120.0,3.1,116.9,.0,113.0,.0L7.0,.0C3.1,.0,.0,3.1,.0,7.0L.0,83.0C.0,86.9,3.1,90.0,7.0,90.0L113.0,90.0C116.9,90.0,120.0,86.9,120.0,83.0zM.0,26.0L120.0,26.0L.0,26.0z" fill="none" stroke="#061309"/><text xml:space="preserve" style="fill:#191919;font-family:Arial, Microsoft Yahei, Microsoft Yahei;font-size:12.00pt"><tspan x="10.3" y="42.0">Receive new </tspan><tspan x="30.8" y="64.0">DICOM </tspan><tspan x="35.2" y="86.0">image</tspan></text><text xml:space="preserve" style="fill:#191919;font-family:Arial, Microsoft Yahei, Microsoft Yahei;font-size:12.00pt"><tspan x="27.7" y="19.0">Orthanc</tspan></text></g><g id="shape9" transform="translate(390.47,566.33)"><path d="M.0,45.0C.0,20.1,20.1,.0,45.0,.0C69.9,.0,90.0,20.1,90.0,45.0C90.0,69.9,69.9,90.0,45.0,90.0C20.1,90.0,.0,69.9,.0,45.0z" fill="#ffffff" fill-rule="nonzero" stroke="#061309"/><text xml:space="preserve" style="fill:#191919;font-family:Arial, Microsoft Yahei, Microsoft Yahei;font-size:12.00pt"><tspan x="12.7" y="51.0">Orthanc</tspan></text></g><g id="shape10" transform="translate(341.33,611.33)"><path d="M.0,.0L43.5,.0" fill="none" stroke-width="1" stroke="#000000"/><path d="M43.5,-5.6L49.1,.0L43.5,5.6L43.5,-5.6" fill="#000000" stroke-linecap="round" stroke-width="1" stroke="#000000"/></g><g id="shape11" transform="translate(375.47,288.96)"><path d="M120.0,71.0L120.0,7.0C120.0,3.1,116.9,.0,113.0,.0L7.0,.0C3.1,.0,.0,3.1,.0,7.0L.0,71.0C.0,74.9,3.1,78.0,7.0,78.0L113.0,78.0C116.9,78.0,120.0,74.9,120.0,71.0z" fill="#ffffff" fill-rule="nonzero"/><path d="M120.0,71.0L120.0,7.0C120.0,3.1,116.9,.0,113.0,.0L7.0,.0C3.1,.0,.0,3.1,.0,7.0L.0,71.0C.0,74.9,3.1,78.0,7.0,78.0L113.0,78.0C116.9,78.0,120.0,74.9,120.0,71.0zM.0,26.0L120.0,26.0L.0,26.0z" fill="none" stroke="#061309"/><text xml:space="preserve" style="fill:#191919;font-family:Arial, Microsoft Yahei, Microsoft Yahei;font-size:12.00pt"><tspan x="16.2" y="47.0">anonymize </tspan><tspan x="42.1" y="69.0">data</tspan></text><text xml:space="preserve" style="fill:#191919;font-family:Arial, Microsoft Yahei, Microsoft Yahei;font-size:12.00pt"><tspan x="34.3" y="19.0">Plugin</tspan></text></g><g id="shape12" transform="translate(145.35,288.96)"><path d="M141.1,68.0L141.1,7.0C141.1,3.1,138.0,.0,134.1,.0L7.0,.0C3.1,.0,.0,3.1,.0,7.0L.0,68.0C.0,71.9,3.1,75.0,7.0,75.0L134.1,75.0C138.0,75.0,141.1,71.9,141.1,68.0z" fill="#ffffff" fill-rule="nonzero"/><path d="M141.1,68.0L141.1,7.0C141.1,3.1,138.0,.0,134.1,.0L7.0,.0C3.1,.0,.0,3.1,.0,7.0L.0,68.0C.0,71.9,3.1,75.0,7.0,75.0L134.1,75.0C138.0,75.0,141.1,71.9,141.1,68.0zM.0,26.0L141.1,26.0L.0,26.0z" fill="none" stroke="#061309"/><text xml:space="preserve" style="fill:#191919;font-family:Arial, Microsoft Yahei, Microsoft Yahei;font-size:12.00pt"><tspan x="14.1" y="45.5">find matching </tspan><tspan x="40.5" y="67.5">records</tspan></text><text xml:space="preserve" style="fill:#191919;font-family:Arial, Microsoft Yahei, Microsoft Yahei;font-size:12.00pt"><tspan x="44.9" y="19.0">Plugin</tspan></text></g><g id="shape13" transform="translate(312.71,87.80)"><path d="M.0,.0L.0,162.2C.0,166.0,-3.1,169.2,-7.0,169.2L-89.8,169.2C-93.7,169.2,-96.8,172.3,-96.8,176.2L-96.8,195.5" fill="none" stroke-width="1" stroke="#000000"/><path d="M-91.2,195.5L-96.8,201.2L-102.4,195.5L-91.2,195.5" fill="#000000" stroke-linecap="round" stroke-width="1" stroke="#000000"/></g><g id="shape14" transform="translate(368.80,412.74)"><path d="M133.3,71.0L133.3,7.0C133.3,3.1,130.2,.0,126.3,.0L7.0,.0C3.1,.0,.0,3.1,.0,7.0L.0,71.0C.0,74.9,3.1,78.0,7.0,78.0L126.3,78.0C130.2,78.0,133.3,74.9,133.3,71.0z" fill="#ffffff" fill-rule="nonzero"/><path d="M133.3,71.0L133.3,7.0C133.3,3.1,130.2,.0,126.3,.0L7.0,.0C3.1,.0,.0,3.1,.0,7.0L.0,71.0C.0,74.9,3.1,78.0,7.0,78.0L126.3,78.0C130.2,78.0,133.3,74.9,133.3,71.0zM.0,26.0L133.3,26.0L.0,26.0z" fill="none" stroke="#061309"/><text xml:space="preserve" style="fill:#191919;font-family:Arial, Microsoft Yahei, Microsoft Yahei;font-size:12.00pt"><tspan x="5.8" y="58.0">Incoming Filter</tspan></text><text xml:space="preserve" style="fill:#191919;font-family:Arial, Microsoft Yahei, Microsoft Yahei;font-size:12.00pt"><tspan x="34.3" y="19.0">Orthanc</tspan></text></g><g id="shape15" transform="translate(435.47,566.33)"><path d="M.0,.0L.0,-70.0" fill="none" stroke-width="1" stroke="#000000"/><path d="M-5.6,-70.0L.0,-75.6L5.6,-70.0L-5.6,-70.0" fill="#000000" stroke-linecap="round" stroke-width="1" stroke="#000000"/></g><g id="shape16" transform="translate(375.47,326.49)"><path d="M.0,.0L-57.0,.0C-57.0,.0,-57.0,.0,-57.0,.0L-57.0,-0.0C-57.0,-0.0,-57.0,-0.0,-57.0,-0.0L-83.4,-0.0" fill="none" stroke-width="1" stroke="#000000"/><path d="M-83.4,5.6L-89.0,-0.0L-83.4,-5.6L-83.4,5.6" fill="#000000" stroke-linecap="round" stroke-width="1" stroke="#000000"/></g><g id="shape17" transform="translate(286.46,345.37)"><path d="M.0,.0L83.4,-0.0" fill="none" stroke-width="1" stroke="#000000"/><path d="M83.4,-5.6L89.0,-0.0L83.4,5.6L83.4,-5.6" fill="#000000" stroke-linecap="round" stroke-width="1" stroke="#000000"/></g><g id="shape18" transform="translate(935.43,812.73)"><path d="M.0,.0L-83.6,.0" fill="none" stroke-width="1" stroke="#000000"/><path d="M-83.6,5.6L-89.2,.0L-83.6,-5.6L-83.6,5.6" fill="#000000" stroke-linecap="round" stroke-width="1" stroke="#000000"/></g><g id="shape19" transform="translate(654.65,785.11)"><path d="M191.6,55.2L191.6,.0L.0,.0L.0,55.2L191.6,55.2z" fill="#ffffff" fill-rule="nonzero" stroke="#000000"/><text xml:space="preserve" style="fill:#191919;font-family:Arial, Microsoft Yahei;font-size:12.00pt"><tspan x="12.9" y="33.6">HTML/javascript File</tspan></text></g><g id="shape20" transform="translate(780.16,163.38)"><path d="M117.8,50.0C123.4,50.0,128.0,45.4,128.0,39.8L128.0,10.2C128.0,4.6,123.4,.0,117.8,.0L10.2,.0C4.6,.0,.0,4.6,.0,10.2L.0,39.8C.0,45.4,4.6,50.0,10.2,50.0L117.8,50.0z" fill="#ffffff" fill-rule="nonzero" stroke="#000000"/><text xml:space="preserve" style="fill:#191919;font-family:Arial, Microsoft Yahei;font-size:12.00pt"><tspan x="16.9" y="31.0">NFS/Samba</tspan></text></g><g id="shape21" transform="translate(639.45,611.33)"><path d="M.0,.0L53.1,.0C55.3,.0,56.7,-1.6,58.4,-3.7C59.5,-5.1,61.2,-6.0,63.1,-6.0C65.0,-6.0,66.7,-5.1,67.8,-3.7C69.5,-1.6,70.9,.0,73.1,.0L118.8,.0" fill="none" stroke-width="1" stroke="#000000"/><path d="M118.8,-5.6L124.4,.0L118.8,5.6L118.8,-5.6" fill="#000000" stroke-linecap="round" stroke-width="1" stroke="#000000"/></g><g id="shape22" transform="translate(642.52,94.49)"><path d="M120.0,56.7L120.0,7.0C120.0,3.1,116.9,.0,113.0,.0L7.0,.0C3.1,.0,.0,3.1,.0,7.0L.0,56.7C.0,60.5,3.1,63.7,7.0,63.7L113.0,63.7C116.9,63.7,120.0,60.5,120.0,56.7z" fill="#ffffff" fill-rule="nonzero"/><path d="M120.0,56.7L120.0,7.0C120.0,3.1,116.9,.0,113.0,.0L7.0,.0C3.1,.0,.0,3.1,.0,7.0L.0,56.7C.0,60.5,3.1,63.7,7.0,63.7L113.0,63.7C116.9,63.7,120.0,60.5,120.0,56.7zM.0,26.0L120.0,26.0L.0,26.0z" fill="none" stroke="#061309"/><text xml:space="preserve" style="fill:#191919;font-family:Arial, Microsoft Yahei, Microsoft Yahei;font-size:12.00pt"><tspan x="23.7" y="50.8">REST API</tspan></text><text xml:space="preserve" style="fill:#191919;font-family:Arial, Microsoft Yahei, Microsoft Yahei;font-size:12.00pt"><tspan x="34.3" y="19.0">Plugin</tspan></text></g><g id="shape23" transform="translate(603.99,680.31)"><path d="M292.9,316.5L292.9,.0L.0,.0L.0,316.5L292.9,316.5z" fill="none" stroke="#061309"/><text xml:space="preserve" style="fill:#191919;font-family:Arial, Microsoft Yahei;font-size:12.00pt"><tspan x="4.5" y="21.0">Front end</tspan></text></g><g id="shape24" transform="translate(824.60,785.11)"><path d="M.0,.0L.0,-111.7C.0,-111.7,.0,-111.7,.0,-111.7L-0.0,-111.7C-0.0,-111.7,-0.0,-111.7,-0.0,-111.7L-0.0,-138.1" fill="none" stroke-width="1" stroke="#000000"/><path d="M-5.6,-138.1L-0.0,-143.7L5.6,-138.1L-5.6,-138.1" fill="#000000" stroke-linecap="round" stroke-width="1" stroke="#000000"/></g><g id="shape25" transform="translate(776.70,641.43)"><path d="M.0,.0L.0,69.9" fill="none" stroke-width="1" stroke="#000000"/><path d="M5.6,69.9L.0,75.5L-5.6,69.9L5.6,69.9" fill="#000000" stroke-linecap="round" stroke-width="1" stroke="#000000"/></g><g id="shape26" transform="translate(744.70,716.91)"><path d="M64.0,39.0L64.0,.0L.0,.0L.0,39.0L64.0,39.0z" fill="#ffffff" fill-rule="nonzero" stroke="#000000"/><text xml:space="preserve" style="fill:#191919;font-family:Arial, Microsoft Yahei;font-size:12.00pt"><tspan x="12.7" y="25.5">filter</tspan></text></g><g id="shape27" transform="translate(776.70,755.91)"><path d="M.0,.0L.0,23.6" fill="none" stroke-width="1" stroke="#000000"/><path d="M5.6,23.6L.0,29.2L-5.6,23.6L5.6,23.6" fill="#000000" stroke-linecap="round" stroke-width="1" stroke="#000000"/></g><g id="shape28" transform="translate(720.45,925.98)"><path d="M110.4,37.8C115.7,37.8,120.0,33.5,120.0,28.2L120.0,9.6C120.0,4.3,115.7,.0,110.4,.0L9.6,.0C4.3,.0,.0,4.3,.0,9.6L.0,28.2C.0,33.5,4.3,37.8,9.6,37.8L110.4,37.8z" fill="#ffffff" fill-rule="nonzero" stroke="#000000"/><text xml:space="preserve" style="fill:#191919;font-family:Arial, Microsoft Yahei;font-size:12.00pt"><tspan x="9.4" y="24.9">link new PHI</tspan></text></g><g id="shape29" transform="translate(1035.51,832.23)"><path d="M.0,.0L.0,105.7C.0,109.5,-3.1,112.7,-7.0,112.7L-189.4,112.7" fill="none" stroke-width="1" stroke="#000000"/><path d="M-189.4,118.3L-195.1,112.7L-189.4,107.0L-189.4,118.3" fill="#000000" stroke-linecap="round" stroke-width="1" stroke="#000000"/></g><g id="shape30" transform="translate(435.47,412.74)"><path d="M.0,.0L.0,-40.2" fill="none" stroke-width="1" stroke="#000000"/><path d="M-5.6,-40.2L.0,-45.8L5.6,-40.2L-5.6,-40.2" fill="#000000" stroke-linecap="round" stroke-width="1" stroke="#000000"/></g><g id="shape31" transform="translate(375.47,149.38)"><path d="M119.2,71.0L119.2,7.0C119.2,3.1,116.0,.0,112.2,.0L7.0,.0C3.1,.0,.0,3.1,.0,7.0L.0,71.0C.0,74.9,3.1,78.0,7.0,78.0L112.2,78.0C116.0,78.0,119.2,74.9,119.2,71.0z" fill="#ffffff" fill-rule="nonzero"/><path d="M119.2,71.0L119.2,7.0C119.2,3.1,116.0,.0,112.2,.0L7.0,.0C3.1,.0,.0,3.1,.0,7.0L.0,71.0C.0,74.9,3.1,78.0,7.0,78.0L112.2,78.0C116.0,78.0,119.2,74.9,119.2,71.0zM.0,26.0L119.2,26.0L.0,26.0z" fill="none" stroke="#061309"/><text xml:space="preserve" style="fill:#191919;font-family:Arial, Microsoft Yahei, Microsoft Yahei;font-size:12.00pt"><tspan x="5.2" y="58.0">Create Dicom</tspan></text><text xml:space="preserve" style="fill:#191919;font-family:Arial, Microsoft Yahei, Microsoft Yahei;font-size:12.00pt"><tspan x="27.2" y="19.0">Orthanc</tspan></text></g><g id="shape32" transform="translate(494.64,188.38)"><path d="M.0,.0L23.3,.0C27.2,.0,30.3,-3.1,30.3,-7.0L30.3,-95.0" fill="none" stroke-width="1" stroke="#000000"/><path d="M24.7,-95.0L30.3,-100.6L36.0,-95.0L24.7,-95.0" fill="#000000" stroke-linecap="round" stroke-width="1" stroke="#000000"/></g><g id="shape33" transform="translate(435.47,288.96)"><path d="M.0,.0L.0,-29.6C.0,-29.6,.0,-29.6,.0,-29.6L-0.4,-29.6C-0.4,-29.6,-0.4,-29.6,-0.4,-29.6L-0.4,-56.0" fill="none" stroke-width="1" stroke="#000000"/><path d="M-6.0,-56.0L-0.4,-61.6L5.2,-56.0L-6.0,-56.0" fill="#000000" stroke-linecap="round" stroke-width="1" stroke="#000000"/></g><g id="shape34" transform="translate(375.47,188.38)"><path d="M.0,.0L-25.8,.0C-29.6,.0,-32.8,-3.1,-32.8,-7.0L-32.8,-95.0" fill="none" stroke-width="1" stroke="#000000"/><path d="M-38.4,-95.0L-32.8,-100.6L-27.1,-95.0L-38.4,-95.0" fill="#000000" stroke-linecap="round" stroke-width="1" stroke="#000000"/></g><g id="shape35" transform="translate(372.71,87.80)"><path d="M.0,.0L.0,47.0C.0,50.8,3.1,54.0,7.0,54.0L142.3,54.0C144.5,54.0,145.9,52.4,147.6,50.2C148.7,48.9,150.4,48.0,152.3,48.0C154.2,48.0,155.9,48.9,157.0,50.2C158.7,52.4,160.1,54.0,162.3,54.0L264.2,54.0" fill="none" stroke-width="1" stroke="#000000"/><path d="M264.2,48.3L269.8,54.0L264.2,59.6L264.2,48.3" fill="#000000" stroke-linecap="round" stroke-width="1" stroke="#000000"/></g><g id="shape36" transform="translate(554.99,87.80)"><path d="M.0,.0L.0,31.5C.0,35.4,3.1,38.5,7.0,38.5L81.9,38.5" fill="none" stroke-width="1" stroke="#000000"/><path d="M81.9,32.9L87.5,38.5L81.9,44.1L81.9,32.9" fill="#000000" stroke-linecap="round" stroke-width="1" stroke="#000000"/></g><g id="shape37" transform="translate(702.52,158.14)"><path d="M.0,.0L.0,595.0C.0,595.0,.0,595.0,.0,595.0L.0,595.0C.0,595.0,.0,595.0,.0,595.0L.0,621.4" fill="none" stroke-width="1" stroke="#000000"/><path d="M5.6,621.4L.0,627.0L-5.6,621.4L5.6,621.4" fill="#000000" stroke-linecap="round" stroke-width="1" stroke="#000000"/></g><g id="shape38" transform="translate(574.99,62.70)"><path d="M.0,.0L262.2,.0C266.0,.0,269.2,3.1,269.2,7.0L269.2,95.1" fill="none" stroke-width="1" stroke="#000000"/><path d="M274.8,95.1L269.2,100.7L263.6,95.1L274.8,95.1" fill="#000000" stroke-linecap="round" stroke-width="1" stroke="#000000"/></g><g id="shape39" transform="translate(480.47,611.33)"><path d="M.0,.0L43.5,.0" fill="none" stroke-width="1" stroke="#000000"/><path d="M43.5,-5.6L49.1,.0L43.5,5.6L43.5,-5.6" fill="#000000" stroke-linecap="round" stroke-width="1" stroke="#000000"/></g><g id="shape40" transform="translate(529.61,572.33)"><path d="M109.8,71.0L109.8,7.0C109.8,3.1,106.7,.0,102.8,.0L7.0,.0C3.1,.0,.0,3.1,.0,7.0L.0,71.0C.0,74.9,3.1,78.0,7.0,78.0L102.8,78.0C106.7,78.0,109.8,74.9,109.8,71.0z" fill="#ffffff" fill-rule="nonzero"/><path d="M109.8,71.0L109.8,7.0C109.8,3.1,106.7,.0,102.8,.0L7.0,.0C3.1,.0,.0,3.1,.0,7.0L.0,71.0C.0,74.9,3.1,78.0,7.0,78.0L102.8,78.0C106.7,78.0,109.8,74.9,109.8,71.0zM.0,26.0L109.8,26.0L.0,26.0z" fill="none" stroke="#061309"/><text xml:space="preserve" style="fill:#191919;font-family:Arial, Microsoft Yahei, Microsoft Yahei;font-size:12.00pt"><tspan x="20.1" y="47.0">webDAV </tspan><tspan x="23.8" y="69.0">website</tspan></text><text xml:space="preserve" style="fill:#191919;font-family:Arial, Microsoft Yahei, Microsoft Yahei;font-size:12.00pt"><tspan x="22.6" y="19.0">Orthanc</tspan></text></g><g id="shape41" transform="translate(750.45,925.98)"><path d="M.0,.0L.0,-17.7" fill="none" stroke-width="1" stroke="#000000"/><path d="M-5.6,-17.7L.0,-23.3L5.6,-17.7L-5.6,-17.7" fill="#000000" stroke-linecap="round" stroke-width="1" stroke="#000000"/></g><g id="shape42" transform="translate(53.39,793.24)"><path d="M104.5,64.4C116.8,59.6,120.0,52.6,120.0,41.2C120.0,29.2,114.0,16.9,103.2,11.6C99.8,2.9,90.4,-1.8,81.3,.6C72.3,3.1,66.6,12.0,68.0,21.3C65.1,16.6,60.0,13.9,54.5,14.2C49.1,14.6,44.3,17.8,42.0,22.8C33.1,17.6,21.9,19.4,15.1,27.1C8.3,34.7,7.8,46.2,13.8,54.4C4.9,57.5,-0.8,66.4,.0,75.9C1.0,85.3,8.1,93.0,17.5,94.4C17.1,95.6,16.9,96.8,16.9,98.0C16.9,105.0,22.6,110.3,29.5,110.3C32.2,110.3,34.8,109.7,36.9,108.2C39.1,115.2,45.6,120.0,52.9,120.0C62.2,120.0,70.1,113.0,69.8,103.0C69.8,102.5,69.8,102.1,69.7,101.6C73.3,104.5,77.6,106.3,82.1,106.7C88.7,107.4,95.8,104.7,97.6,98.9C106.1,101.7,114.6,95.1,114.4,84.3C114.3,76.2,110.0,67.4,104.5,64.4z" fill="#ffffff" fill-rule="nonzero" stroke="#061309"/><text xml:space="preserve" style="fill:#191919;font-family:Arial, Microsoft Yahei;font-size:12.00pt"><tspan x="16.8" y="55.0">third party </tspan><tspan x="34.3" y="77.0">plugin</tspan></text></g><g id="shape43" transform="translate(358.33,824.89)"><path d="M154.3,56.7L154.3,.0L.0,.0L.0,56.7L154.3,56.7z" fill="#ffffff" fill-rule="nonzero" stroke="#061309"/><text xml:space="preserve" style="fill:#191919;font-family:Arial, Microsoft Yahei;font-size:12.00pt"><tspan x="11.1" y="23.3">Forked Orthanc-</tspan><tspan x="43.3" y="45.3">Tools-JS</tspan></text></g><g id="shape44" transform="translate(113.39,913.24)"><path d="M.0,.0L.0,25.0C.0,28.9,3.1,32.0,7.0,32.0L205.9,32.0C209.8,32.0,212.9,28.9,212.9,25.0L212.9,-53.0C212.9,-56.9,216.1,-60.0,219.9,-60.0L239.3,-60.0" fill="none" stroke-width="1" stroke="#000000"/><path d="M239.3,-65.6L244.9,-60.0L239.3,-54.4L239.3,-65.6" fill="#000000" stroke-linecap="round" stroke-width="1" stroke="#000000"/></g><g id="shape45" transform="translate(435.47,656.33)"><path d="M.0,.0L.0,162.9" fill="none" stroke-width="1" stroke="#000000"/><path d="M5.6,162.9L.0,168.6L-5.6,162.9L5.6,162.9" fill="#000000" stroke-linecap="round" stroke-width="1" stroke="#000000"/></g><g id="shape46" transform="translate(512.62,853.24)"><path d="M.0,.0L103.0,.0C106.9,.0,110.0,-3.1,110.0,-7.0L110.0,-33.5C110.0,-37.4,113.2,-40.5,117.0,-40.5L136.4,-40.5" fill="none" stroke-width="1" stroke="#000000"/><path d="M136.4,-46.1L142.0,-40.5L136.4,-34.9L136.4,-46.1" fill="#000000" stroke-linecap="round" stroke-width="1" stroke="#000000"/></g><g id="shape47" transform="translate(726.66,863.67)"><path d="M47.6,39.0L47.6,.0L.0,.0L.0,39.0L47.6,39.0z" fill="#ffffff" fill-rule="nonzero" stroke="#000000"/><text xml:space="preserve" style="fill:#191919;font-family:Arial, Microsoft Yahei;font-size:12.00pt"><tspan x="11.1" y="25.5">csv</tspan></text></g><g id="shape48" transform="translate(750.45,863.67)"><path d="M.0,.0L-0.0,-17.7" fill="none" stroke-width="1" stroke="#000000"/><path d="M-5.6,-17.7L-0.0,-23.3L5.6,-17.7L-5.6,-17.7" fill="#000000" stroke-linecap="round" stroke-width="1" stroke="#000000"/></g></g></svg>